<svg width="14" height="14" viewBox="0 0 14 14" fill="none"
    xmlns="http://www.w3.org/2000/svg">
    <path d="M6.99992 0.333252C7.88397 0.333252 8.73182 0.684441 9.35694 1.30956C9.98206 1.93468 10.3333 2.78253 10.3333 3.66659C10.3333 4.55064 9.98206 5.39849 9.35694 6.02361C8.73182 6.64873 7.88397 6.99992 6.99992 6.99992C6.11586 6.99992 5.26802 6.64873 4.6429 6.02361C4.01777 5.39849 3.66659 4.55064 3.66659 3.66659C3.66659 2.78253 4.01777 1.93468 4.6429 1.30956C5.26802 0.684441 6.11586 0.333252 6.99992 0.333252ZM6.99992 8.66658C10.6833 8.66658 13.6666 10.1583 13.6666 11.9999V13.6666H0.333252V11.9999C0.333252 10.1583 3.31659 8.66658 6.99992 8.66658Z" fill="#161A1E"/>
</svg>
